<?xml version="1.0" encoding="iso-8859-1"?>
<!-- Generator: Adobe Illustrator 19.0.0, SVG Export Plug-In . SVG Version: 6.00 Build 0)  -->
<svg version="1.1" id="Capa_1" xmlns="http://www.w3.org/2000/svg" xmlns:xlink="http://www.w3.org/1999/xlink" x="0px" y="0px"
	 viewBox="0 0 298.002 298.002" style="enable-background:new 0 0 298.002 298.002;" xml:space="preserve">
<g>
	<path d="M131.668,115.501c-4.418,0-8,3.582-8,8v51c0,4.418,3.582,8,8,8s8-3.582,8-8v-16.5h19v16.5c0,4.418,3.582,8,8,8s8-3.582,8-8
		v-51c0-4.418-3.582-8-8-8s-8,3.582-8,8v18.5h-19v-18.5C139.668,119.083,136.086,115.501,131.668,115.501z"/>
	<path d="M273.001,183.001h-29c-4.418,0-8.333,3.082-8.333,7.5v18.5H101.544c-5.118-6-12.432-9-20.543-9H61.668v-9.5
		c0-4.418-3.249-7.5-7.667-7.5h-29c-4.418,0-8.333,3.082-8.333,7.5v84c0,4.418,3.915,8.5,8.333,8.5h5.667v6.5c0,4.418,3.582,8,8,8
		s8-3.582,8-8v-6.5h202v6.5c0,4.418,3.582,8,8,8c4.418,0,8-3.582,8-8v-6.5h8.333c4.418,0,7.667-4.082,7.667-8.5v-84
		C280.668,186.083,277.419,183.001,273.001,183.001z M140.668,225.001v24h-32v-21.5c0-1.014,0.275-2.5,0.17-2.5H140.668z
		 M61.668,216.001h19.333c6.617,0,11.667,4.883,11.667,11.5v21.5h-31V216.001z M235.668,249.001h-79v-24h79V249.001z"/>
	<path d="M295.659,143.844L154.658,2.843c-3.125-3.123-8.189-3.123-11.314,0L2.343,143.844c-2.288,2.288-2.972,5.98-1.733,8.969
		c1.238,2.989,4.155,5.188,7.391,5.188h44.668c2.122,0,4.156-1.093,5.657-2.593l90.676-90.802l90.676,90.864
		c1.501,1.5,3.535,2.53,5.657,2.53h44.668c3.235,0,6.152-2.199,7.391-5.188C298.631,149.824,297.947,146.132,295.659,143.844z"/>
</g>
<g>
</g>
<g>
</g>
<g>
</g>
<g>
</g>
<g>
</g>
<g>
</g>
<g>
</g>
<g>
</g>
<g>
</g>
<g>
</g>
<g>
</g>
<g>
</g>
<g>
</g>
<g>
</g>
<g>
</g>
</svg>
